<?xml version="1.0" encoding="UTF-8"?>
<svg id="Layer_2" data-name="Layer 2" xmlns="http://www.w3.org/2000/svg" viewBox="0 0 32.5 20">
  <defs>
    <style>
      .cls-1 {
        fill: #fff;
        stroke-width: 0px;
      }
    </style>
  </defs>
  <g id="Layer_1-2" data-name="Layer 1">
    <path class="cls-1" d="M2,4h28.5c1.1,0,2-.9,2-2s-.9-2-2-2H2C.9,0,0,.9,0,2s.9,2,2,2ZM30.5,8H2c-1.1,0-2,.9-2,2s.9,2,2,2h28.5c1.1,0,2-.9,2-2s-.9-2-2-2ZM30.5,16H2c-1.1,0-2,.9-2,2s.9,2,2,2h28.5c1.1,0,2-.9,2-2s-.9-2-2-2Z"/>
  </g>
</svg>