<svg width="50" height="57" viewBox="0 0 50 57" fill="none" xmlns="http://www.w3.org/2000/svg">
<path d="M48.6227 31.001C48.5037 30.9868 2.75572 31.0112 2.59529 31.001H0.0942256C-1.01075 42.4331 7.72384 52.6054 19.9242 52.6064H30.1696C35.4272 52.6024 40.4683 50.5987 44.1861 47.0353C47.904 43.4718 49.9948 38.6398 49.9996 33.6001V31.0021L48.6227 31.001ZM19.9242 54.7187C17.8434 54.7201 15.7732 54.4354 13.7767 53.8734V55.0884C13.7766 55.3395 13.8281 55.5881 13.9283 55.8201C14.0284 56.0521 14.1753 56.2629 14.3605 56.4404C14.5458 56.6179 14.7657 56.7587 15.0077 56.8548C15.2497 56.9508 15.5091 57.0001 15.771 57H34.3218C34.5838 57.0003 34.8433 56.951 35.0854 56.8551C35.3276 56.7591 35.5476 56.6183 35.7329 56.4408C35.9183 56.2632 36.0652 56.0524 36.1655 55.8203C36.2657 55.5883 36.3172 55.3395 36.3171 55.0884V53.8744C32.5028 55.1892 24.0094 54.6005 19.9232 54.7197L19.9242 54.7187ZM40.8666 25.3721C40.5968 25.396 40.3269 25.326 40.1065 25.1749C39.886 25.0238 39.7297 24.8017 39.666 24.5492C38.9882 21.2616 33.8915 19.8745 30.3789 21.0111C30.09 21.0102 29.8129 20.9005 29.6076 20.7055C26.8452 17.9965 20.3492 18.4792 18.5026 21.7505C18.4058 21.9093 18.2677 22.0413 18.1018 22.1338C17.9359 22.2262 17.7478 22.2759 17.556 22.278C14.1592 21.8767 10.1824 24.101 10.3067 26.9354C10.3089 27.1086 10.2657 27.2795 10.181 27.4326C10.0964 27.5856 9.973 27.7158 9.82222 27.8112C9.61086 27.9548 9.35188 28.0189 9.09443 27.9915C7.8023 27.9939 6.53076 28.3021 5.39278 28.8888H47.2011C46.4627 26.8722 43.8851 25.3721 40.8666 25.3721ZM15.9325 12.0518C15.7513 12.2716 15.6687 12.5515 15.7027 12.8298C15.7368 13.1081 15.8848 13.362 16.1142 13.5356C16.3436 13.7093 16.6355 13.7886 16.9258 13.7559C17.2161 13.7232 17.481 13.5814 17.6622 13.3615C18.4926 12.3576 18.9233 11.1032 18.8772 9.8228C18.831 8.54238 18.3111 7.31947 17.4104 6.37289C16.8077 5.74017 16.4872 4.90646 16.5176 4.05014C16.548 3.19382 16.9268 2.3829 17.573 1.79089C17.7718 1.59407 17.8831 1.33087 17.8833 1.05687C17.8835 0.782876 17.7726 0.519527 17.574 0.32244C17.3755 0.125353 17.1048 0.00995469 16.8191 0.000614435C16.5334 -0.00872582 16.2551 0.0887233 16.043 0.272383C14.9826 1.2458 14.3618 2.57845 14.3135 3.98511C14.2653 5.39176 14.7934 6.76063 15.7848 7.79872C16.3322 8.37554 16.6478 9.12019 16.675 9.89954C16.7023 10.6789 16.4395 11.4421 15.9336 12.0528L15.9325 12.0518ZM24.3972 12.0518C24.216 12.2716 24.1334 12.5515 24.1675 12.8298C24.2015 13.1081 24.3495 13.362 24.5789 13.5356C24.8083 13.7093 25.1002 13.7886 25.3905 13.7559C25.6809 13.7232 25.9457 13.5814 26.1269 13.3615C26.9579 12.3579 27.389 11.1035 27.3431 9.82297C27.2971 8.54243 26.7771 7.3194 25.8762 6.37289C25.2733 5.7403 24.9527 4.90666 24.9829 4.05035C25.0131 3.19403 25.3917 2.38304 26.0377 1.79089C26.2336 1.59363 26.3425 1.33142 26.3415 1.05905C26.3406 0.786667 26.2299 0.525175 26.0325 0.329186C25.8352 0.133197 25.5665 0.0178657 25.2826 0.00728074C24.9986 -0.00330424 24.7214 0.0916757 24.5088 0.272383C23.4479 1.24553 22.8268 2.57815 22.7783 3.98489C22.7299 5.39162 23.258 6.76062 24.2495 7.79872C24.7972 8.37545 25.1128 9.12013 25.1401 9.89953C25.1673 10.6789 24.9044 11.4422 24.3983 12.0528L24.3972 12.0518ZM32.8619 12.0518C32.6808 12.2716 32.5981 12.5515 32.6322 12.8298C32.6663 13.1081 32.8143 13.362 33.0436 13.5356C33.273 13.7093 33.565 13.7886 33.8553 13.7559C34.1456 13.7232 34.4105 13.5814 34.5916 13.3615C35.4224 12.3578 35.8534 11.1035 35.8075 9.82298C35.7615 8.5425 35.2417 7.3195 34.3409 6.37289C33.738 5.7403 33.4174 4.90666 33.4476 4.05035C33.4778 3.19403 33.8564 2.38304 34.5024 1.79089C34.6983 1.59363 34.8072 1.33142 34.8062 1.05905C34.8053 0.786667 34.6946 0.525175 34.4972 0.329186C34.2999 0.133197 34.0312 0.0178657 33.7473 0.00728074C33.4633 -0.00330424 33.1861 0.0916757 32.9735 0.272383C31.9125 1.24539 31.2912 2.57794 31.2425 3.98468C31.1939 5.39142 31.7218 6.76049 32.7132 7.79872C33.2608 8.37545 33.5765 9.12013 33.6037 9.89953C33.631 10.6789 33.368 11.4412 32.8619 12.0518Z" fill="black"/>
</svg>
