<svg width="41" height="31" viewBox="0 0 41 31" fill="none" xmlns="http://www.w3.org/2000/svg">
<path d="M3.60784 28.1734C1.35294 25.6942 0 22.9895 0 18.4818C0 10.5932 5.63726 3.6062 13.5294 0L15.5588 2.93004C8.11765 6.98701 6.53922 12.1709 6.08824 15.5517C7.21569 14.8756 8.79412 14.6502 10.3726 14.8756C14.4314 15.3263 17.5882 18.4818 17.5882 22.7641C17.5882 24.7926 16.6863 26.8211 15.3333 28.3988C13.7549 29.9765 11.951 30.6527 9.69608 30.6527C7.21569 30.6527 4.96078 29.5257 3.60784 28.1734ZM26.1569 28.1734C23.902 25.6942 22.549 22.9895 22.549 18.4818C22.549 10.5932 28.1863 3.6062 36.0784 0L38.1078 2.93004C30.6667 6.98701 29.0882 12.1709 28.6373 15.5517C29.7647 14.8756 31.3431 14.6502 32.9216 14.8756C36.9804 15.3263 40.1373 18.4818 40.1373 22.7641C40.1373 24.7926 39.2353 26.8211 37.8824 28.3988C36.5294 29.9765 34.5 30.6527 32.2451 30.6527C29.7647 30.6527 27.5098 29.5257 26.1569 28.1734Z" fill="white"/>
</svg>
