<?xml version="1.0" encoding="utf-8"?>
<!-- Generator: Adobe Illustrator 28.1.0, SVG Export Plug-In . SVG Version: 6.00 Build 0)  -->
<svg version="1.1" id="Layer_2_00000045620201294665523250000002250756889480729984_"
	 xmlns="http://www.w3.org/2000/svg" xmlns:xlink="http://www.w3.org/1999/xlink" x="0px" y="0px" viewBox="0 0 68 69.4"
	 style="enable-background:new 0 0 68 69.4;" xml:space="preserve">
<style type="text/css">
	.st0{fill:none;stroke:#000000;stroke-miterlimit:10;}
</style>
<g id="Layer_1-2">
	<g>
		<path class="st0" d="M27.2,23.1c0.7-0.2,7.1-2.5,9-9c0.3-1.2,2-7.3-2-11c-3.5-3.3-9.9-3.5-13,0c-2.1,2.4-3,7.1-0.5,9.5
			c2,1.9,5.7,2.2,7.8,0.1c1.8-1.7,1.8-4.5,0.1-6.2c-1.4-1.4-3.6-1.4-5-0.1c-1.1,1.1-1.2,2.9-0.1,4c0.9,0.9,2.3,0.9,3.2,0.1
			c0.7-0.7,0.7-1.8,0-2.6c-0.5-0.5-1.3-0.4-2,0"/>
		<g>
			<path d="M0.2,36.1c0,0,0-0.1,0-0.1v0C0.2,35.9,0.2,36,0.2,36.1z"/>
			<path d="M59.9,36.9c0-0.5-0.2-0.9-0.4-1.3c-2.2-5-14.5-8.6-29.8-8.6S2.3,30.5,0.4,35.6c-0.1,0.1-0.1,0.2-0.1,0.3v0
				c0,0,0,0.1,0,0.1c0,0,0,0,0,0.1c0,0.1,0,0.1,0,0.2c0,0.1,0,0.2-0.1,0.3c0,0,0,0.1,0,0.1c0,0,0,0.1,0,0.1v0.1c0,0,0,0,0,0v7.7
				c0,7.9,4.8,14.6,11.7,17.4c2.2,0.9,4.5,1.4,7,1.4h22.6c2.2,0,4.4-0.4,6.4-1.1C54.9,59.8,60,52.9,60,44.8v-7.6
				C60,37.1,60,37,59.9,36.9L59.9,36.9z M29.8,46.5c-17.2,0-28.7-4.9-28.7-9.4c0-0.5,0.1-1,0.4-1.5c2.2-4.3,14.1-7.6,28.3-7.6
				s26.2,3.4,28.7,7.6c0.3,0.5,0.5,1.1,0.5,1.6C59,42.2,45.6,46.5,29.8,46.5z"/>
		</g>
		<ellipse cx="15.7" cy="37.1" rx="3" ry="2.5"/>
		<ellipse transform="matrix(0.3663 -0.9305 0.9305 0.3663 -11.9272 48.6004)" cx="29.7" cy="33.1" rx="2.5" ry="3"/>
		<ellipse transform="matrix(0.7372 -0.6757 0.6757 0.7372 -18.3222 33.8199)" cx="34.3" cy="40.5" rx="1.8" ry="2.7"/>
		<path d="M44.7,40.6c0,0-0.3-3,0.8-3.5c0,0,14.2-10.5,21.2-10.5c0,0,2-1,1-3s-5,0-5,0l-18,12c0,0-1,1-2,1c0,0-1-1-3-1l5,6V40.6z"/>
		<path d="M14,59.9c0,0-1,8,8,9S39.7,69,39.7,69s8.3-1,8.4-9C48,60,14,59.9,14,59.9z"/>
	</g>
</g>
</svg>
