<svg width="82" height="71" viewBox="0 0 82 71" fill="none" xmlns="http://www.w3.org/2000/svg">
<path d="M80.2844 25.1448C79.1402 24.0013 77.7597 23.4289 76.1422 23.4289H76.1433V5.85751C76.1433 4.2708 75.5631 2.89822 74.4046 1.73897C73.2457 0.579709 71.871 0 70.2856 0C56.2224 11.7142 42.5555 17.5717 29.2853 17.5717H7.32161C5.30825 17.5717 3.58435 18.2883 2.15055 19.7223C0.716582 21.1566 0 22.8805 0 24.8933V33.6789C0 35.6924 0.71546 37.4163 2.14959 38.8499C3.58323 40.2847 5.30713 41.0005 7.32064 41.0005H12.9034C12.3857 42.6445 12.0482 44.34 11.8969 46.0569C11.7448 47.7808 11.6913 49.2826 11.7368 50.5645C11.7823 51.8457 12.0115 53.3859 12.4233 55.186C12.8348 56.9857 13.186 58.343 13.4758 59.2579C13.7654 60.1738 14.2536 61.6147 14.9399 63.582C15.626 65.5499 16.0761 66.8843 16.2894 67.5858C17.6924 68.8671 19.7058 69.7139 22.3293 70.1254C24.9536 70.5361 27.5234 70.3618 30.0402 69.5989C32.5568 68.8364 34.2576 67.5695 35.1422 65.8012C33.9831 64.8857 33.0452 64.1156 32.3284 63.4899C31.6113 62.8647 30.8794 62.1029 30.1317 61.2026C29.384 60.3032 28.8737 59.4638 28.599 58.6862C28.3246 57.9084 28.2329 57.0238 28.3246 56.0317C28.416 55.0399 28.767 54.0406 29.3771 53.0348C28.218 51.8446 27.6072 50.4338 27.5467 48.8016C27.4861 47.1704 27.9589 45.6369 28.9654 44.2032C29.9718 42.7696 31.3604 41.7624 33.1295 41.1832C45.1799 42.1897 57.5651 47.9855 70.2861 58.5717C71.8717 58.5717 73.2462 57.992 74.404 56.8324C75.5634 55.674 76.1427 54.3006 76.1427 52.7145V35.1435C77.7608 35.1435 79.1412 34.5718 80.2849 33.4276C81.428 32.2834 82.0005 30.9029 82.0005 29.2866C82 27.6696 81.4275 26.289 80.2844 25.1448ZM70.2858 51.0674C58.3573 41.9467 46.6439 36.7444 35.1431 35.4638V23.1084C46.5519 21.8576 58.2669 16.626 70.2858 7.41328V51.0674Z" fill="black"/>
</svg>
