<svg width="57" height="57" viewBox="0 0 57 57" fill="none" xmlns="http://www.w3.org/2000/svg">
<path d="M36.8934 8.60777C37.2453 7.81318 37.7234 7.07748 38.3081 6.42402L40.1391 8.47775L43.2611 8.35328L40.1598 4.87372C41.3613 4.1258 42.7371 3.68239 44.1622 3.5857L43.8056 8.33216L44.6174 8.29994C45.1746 8.28104 45.7283 8.38662 46.2374 8.60666L46.602 3.75684C47.9961 4.05246 49.2917 4.6848 50.3683 5.59386L46.571 8.77447C46.8714 8.94006 47.1569 9.13121 47.3999 9.37459C47.7439 9.71798 48.0019 10.1247 48.1773 10.5615L51.9676 7.38754C52.7404 8.5511 53.1967 9.88579 53.2964 11.2661L48.2862 10.9115C48.4031 11.3005 48.4501 11.7061 48.4261 12.1096L48.3366 13.292L53.1176 13.6298C52.8126 14.9812 52.1602 16.237 51.2224 17.2805L48.285 13.9855L48.034 17.3294L49.3731 18.8308C48.9007 19.1242 48.3928 19.3609 47.8666 19.5599L47.5788 23.3884C52.636 22.2282 56.5674 17.9973 56.9653 12.7141C57.4525 6.19731 52.3792 0.506223 45.6538 0.0316876C39.7195 -0.387281 34.4582 3.39233 32.9631 8.76447L36.8922 8.60888L36.8934 8.60777Z" fill="black"/>
<path d="M45.584 14.0477C46.1985 13.3453 46.1091 12.294 45.3845 11.6984C45.0738 11.4428 44.6794 11.3027 44.2724 11.3027H1.71976C0.770453 11.3027 0 12.0495 0 12.9697C0 13.3642 0.14446 13.7465 0.408156 14.0477L4.10793 18.2763V18.1763H41.8842V18.2763L45.584 14.0477ZM27.3614 37.0028C28.6489 35.8359 29.3861 34.1867 29.3861 32.4786V32.4486C29.3804 31.2039 29.8103 30.0237 30.5968 29.1246L39.0546 19.4572H6.93751L15.315 29.0335C16.1669 30.007 16.6243 31.195 16.606 32.3808C16.6037 32.5575 16.6083 32.7331 16.6209 32.9087C16.8078 35.5537 18.7259 37.7519 21.2769 38.4442V47.5671L11.4043 53.9461C10.6144 54.4573 10.4 55.4919 10.9274 56.2576C11.2461 56.721 11.7827 57 12.3582 57H33.6339C34.5832 57 35.3537 56.2532 35.3537 55.333C35.3537 54.7762 35.0659 54.255 34.5878 53.9461L24.7153 47.5671V38.4487C25.6921 38.1853 26.5955 37.6974 27.3614 37.0028Z" fill="black"/>
</svg>
